<?xml version="1.0" encoding="UTF-8"?>
<!-- Created with Inkscape (http://www.inkscape.org/) -->
<svg width="800" height="1e3" version="1.1" viewBox="0 0 211.67 264.58" xmlns="http://www.w3.org/2000/svg">
 <path d="m125.48 111.75a22.089 20.79 0 0 1-22.089 20.79 22.089 20.79 0 0 1-22.089-20.79 22.089 20.79 0 0 1 22.089-20.79 22.089 20.79 0 0 1 22.089 20.79z" fill="#fff" fill-rule="evenodd" stroke="#0d47a1" stroke-width=".665"/>
 <g fill-rule="evenodd" stroke-width=".665">
  <path d="m98.01 90.956" fill="#fffeff" fill-opacity=".24436" stroke="#ff18fe"/>
  <path d="m82.046 113.6c10.526-7.2276 13.614-12.04 18.191-22.275l6.3112-0.37125c-5.27 12.348-11.943 22.168-24.131 28.586z" fill="#0d47a1" fill-opacity=".95686" stroke="#0d47a1"/>
  <path d="m88.358 126.22 27.844-31.185 4.8262 3.7125-27.101 31.556z" fill="#0d47a1" fill-opacity=".98039" stroke="#0d47a1"/>
  <path d="m124.37 106.18" fill="#fffeff" fill-opacity=".24436" stroke="#ff18fe"/>
  <path d="m124 105.06c-9.3584 6.9766-17.467 15.203-21.904 27.101l7.7962-0.7425c2.3405-8.5968 8.3292-14.275 15.592-18.934z" fill="#0d47a1" fill-opacity=".98824" stroke="#0d47a1"/>
 </g>
</svg>
